<?xml version="1.0" encoding="UTF-8"?>
<svg id="Layer_1" data-name="Layer 1" xmlns="http://www.w3.org/2000/svg" viewBox="0 0 1080 1080">
  <defs>
    <style>
      .cls-1 {
        fill: #251d13;
      }

      .cls-2 {
        fill: #1f2e4c;
      }

      .cls-3 {
        fill: #1f262c;
      }

      .cls-4 {
        fill: #c9b390;
      }

      .cls-5 {
        font-size: 35.31px;
      }

      .cls-5, .cls-6 {
        fill: #293752;
        font-family: MyriadPro-Bold, 'Myriad Pro';
        font-weight: 700;
      }

      .cls-6 {
        font-size: 137.06px;
      }

      .cls-7 {
        fill: #edecec;
      }

      .cls-8 {
        fill: #233150;
      }

      .cls-9 {
        letter-spacing: 0em;
      }

      .cls-10 {
        fill: #efeeec;
      }

      .cls-11 {
        fill: #cbac6c;
      }

      .cls-12 {
        fill: #eceded;
      }

      .cls-13 {
        fill: #c4ac7e;
      }

      .cls-14 {
        fill: #ecebeb;
      }

      .cls-15 {
        fill: #cca85c;
      }

      .cls-16 {
        fill: #c5a565;
      }

      .cls-17 {
        fill: #32323e;
      }

      .cls-18 {
        fill: #ebeae8;
      }

      .cls-19 {
        fill: #fcfcfa;
      }

      .cls-20 {
        fill: #eae2d8;
      }

      .cls-21 {
        fill: #2f374d;
      }

      .cls-22 {
        letter-spacing: -.02em;
      }

      .cls-23 {
        letter-spacing: -.01em;
      }

      .cls-24 {
        letter-spacing: -.02em;
      }

      .cls-25 {
        fill: #ededec;
      }

      .cls-26 {
        letter-spacing: 0em;
      }

      .cls-27 {
        letter-spacing: 0em;
      }

      .cls-28 {
        letter-spacing: -.01em;
      }

      .cls-29 {
        letter-spacing: -.01em;
      }

      .cls-30 {
        letter-spacing: 0em;
      }

      .cls-31 {
        letter-spacing: 0em;
      }

      .cls-32 {
        fill: #463629;
      }

      .cls-33 {
        letter-spacing: 0em;
      }

      .cls-34 {
        fill: #ececec;
      }
    </style>
  </defs>
  <rect class="cls-19" x="-64.78" y="-21.12" width="1360.62" height="1147.21"/>
  <g>
    <path class="cls-21" d="M914.36,558.16c-4.46-4.73-13.05-3.32-14.9-10.28,2.71,1.65,4.73,2.97,7.61,3.43,8.21,1.3,11.41,7.31,14.46,4.26,1.98-1.98,4.38-3.13,6.72-4.67l8.52-5.59c-.53,3.27-3.03,4.59-5.04,6.17l-7.37,5.8c.93,1.09,1.93,1.07,3.21,1.73-2.45,2.45-6.24,3.79-9.93,3.6l-6.91-1.86c.43-1.49,1.65-1.7,3.63-2.59Z"/>
    <path class="cls-2" d="M594.7,419.9c.72.1,2.3-1.17,1.83-1.82-3.97-1.1-7.41-.57-10.39-2.84l14.92,2.02,5.52-5.95,8.96-3.96-10.75,11.13c1.4,1.48,2.87,1.55,4.85,2.49-4.76,3.01-9.86,2.58-14.92-1.07Z"/>
    <path class="cls-8" d="M669.86,374.02c-5.49,2.03-9.14,4.36-5.7,5.9-3.39,2.16-8.2,3.35-11.62.76l2.91-1.34c-1.62-4.32-6.7-4.8-7.84-8.63l8.08,3.67,4.18,3.03c3.04-2.18,6.05-3.85,9.99-3.38Z"/>
    <path class="cls-17" d="M646.22,402.62c.91.93,1.91,1.79,2.25,3.4-1.88-.64-3.11-1.48-4.3-2.35-.8-.58-1.43-2.06-2.97-1.59l-8.01,2.43,10.08-8.3c.64,3.06,1.29,4.72,2.95,6.42Z"/>
    <path class="cls-12" d="M805.74,544.75c7.68-10.86,15.99-26.03,16.84-39.04,7.69-.13,15.8,3.95,19.73,11.03s-6.63,29.4-11.96,36.88l-14.07,19.74c-4.6-11.39-13.33-16.01-10.54-28.62Z"/>
    <path class="cls-32" d="M793.48,560.6c-2.45.61-4.39.26-6.85-.3,0,0-3.01.09-9.04.26-6.07,2.02-12.53,1.32-17.92-2.13-6.98-4.46,3.6-4.2,7.15-2.96l3.11.04c9.14-3.12,18.45-5.03,27.8-1.21.06-3.92-.18-8.06-.7-12.43,1.38-5.46,11.24-2.36,8.71,2.88,1,1.68,1.33,3.87,1,6.56-.3,2.37,8.96,19.44,9.96,19.02,1.39-.57,15.36-22.01,16.8-24.89,2.61-5.19,10.37-22.29,7.79-27.51-3.22-6.51-10.41-10.41-17.49-10.78l-1.22-1.44c-1,1.36-2.64,2.05-4.91,2.09-4.13,1.22-8.01,3.01-11.66,5.36.11,15.3-10.94,13.49-21.85,9.97,3.94,5.9-.16,8.69-6.06,7.2-4.62.72-9.09,2.23-13.42,4.53-2.65,1.01-5.79,1.77-8.56.78-9.36-3.37-2.65-7.42,2.85-10.34-3.57-1.25-7.23.33-10.97,4.75-2.32,1.32-5,1.42-8.04.32-3.43-.04-6.91.72-10.46,2.28-2.42-.12-3.18-.41-5.21-1.55-7.18-4.01-3.26-7.54,2.55-9.68,1.32-.82,1.94-1.35,1.29-2.86-7-9.57,4.11-9.77,10.95-8.9-4.13-15.15,13.38-18.19,23.52-11.18-4.7-2.13-8.01-5.19-9.92-9.18-.22-4.25,2.09-5.27,6.92-3.07,4.47-.04,8.94-.5,13.43-1.38,3.67-17.02,20.12-8.63,30.11-2.74,4.08-1.03,7.89-3.35,11.43-6.98,2.95-1.27,8.71,1.85,9.35,4.98.33-.45.87-1.09,1.23-.94,1.68.69,10.77,5.79,11.1,6.91.84,2.86-6.42,7.72-8.64,4.81-1.76,1.09-3.55,1.78-5.39,2.07-3.6.31-1.96,4.86.49,5.06.31-.25.62-.47.98-.59,4.82-1.67,16.75,4.61,20.75,7.97,1.74-1.27-1.06-20.74-2.59-24.12-2.22-4.89-6.71-6.21-11.8-6.24l-1.04-1.41c-1.81-.52-4.18-.61-5.32.94-9.65,1.61-26.25-2.52-34.36-8.08l-9.29,1.72c-9.14,9.42-17.68,10.08-28.74,3.95-6.27-1.3-21.71-7.13-10.8-13.59l7.37-1.95c-3.49-6.81-3.97-16.67,6.7-12.02,3.76-2.32,7.91-4.21,12.31-4.83,1.64-3.55,3.6-4.96,5.88-4.24,4.84,3.72,8.71,4.24,11.61,1.56-1.05-4.28.35-6.7,4.21-7.26-1.44-.67-2.91-1-4.38-.99-9.64,7.19-19.08,6.97-29.99,2.39-7.29-3.06-9.11-6.68.06-9.3-3.3-6.37,2.17-8.06,7.61-8.58-4.04-6-2.12-9.47,4.85-10.57,6.99,1.06,13.58.47,19.77-1.78l1.78.65c2.34-.2,5.83.45,8.37-.39l1.23-3.25c.39-1.04,2.29-1.32,3.81-1.2,6.97.59,10.85,7.76,18.2,7.22-1.83-4.57-3.78-9.05-7.94-11.11-7.09-3.5-14.95-1.54-21.65,2.12-1.74.95-3.86,1.12-5.6.59-5.53-1.69-.14-8.21-6.86-12.5,2.61-4,7.81-3.56,11.28-5.06.74-1.96.71-6.44,4.25-6.22,4.25.26,7.87,3.01,12.14,4.51-.25-7.16-8.96-11.9-1.7-16.37,5.28-3.25,11.31-.93,15.78-9.87,2.61-5.22,7.81-8.18,13.59-7.45,6.55.83,7.41-7.16,15.53-2.92,7.41,3.88,10.88,11.82,18.51,8.71,1.64-.67,3.6-.38,4.65.6,4.7,4.4-3.37,12.01-.87,13.59,2.21,1.39,6.6-6.28,14.97-3.05,3.98,1.54,8.6-4.08,11.45.72l6.1,10.26c.68,1.15,1.8,2.33,2.65,2.72,2.44,1.12,5.66-2.26,7.75-1.3,2.33,1.07.54,5.45,4.04,9.89,3.84,4.87-8.38,2.8-7.99,10.8,5.31.94,10.91,1.22,16.08-.34,1.26-.38,2.3-1.41,3.78-.78,3.27,1.38,2.52,8.55,4.41,9.65l9.93,5.8c1.95,1.14,3.51,2.66,3.29,5.39-.28,3.53-2.2,8.38-5.78,9.55s-7.16-1.69-10.62-1.84c-4.51-.19-8.38,3.34-10.24,7.06l8.89-4.23c4.13-1.96,4.24,6.12,9.67,5.41,3.95-.52,7.54-4.42,10.35-2.2,2.54,2.01.14,6.51,1.35,8.53,1,1.67,6.42-.87,8.03,2.74.58,1.3.09,3.4-1.65,4.19l-7.82,3.54c-2.63,1.19-4.91,2.56-6.42,5.02-1.67,2.75-4.6,4.28-7.86,3.68-3.49-.65-5.41-3.14-7.96-5.92-1.26,4.7-3.78,9.15-8.43,8.78l-12.67-3.56c-4.42,3.66-8.72,7.26-13.88,9.75-7.28,3.5-15.74.24-23.76,9.2-4.37,4.88-8.96,10.83-9.01,18.03l-.2,31.64c12.96-10.03,29.77-9.85,34.71-25.31-8.08.38-14.07,8.4-16.65,7.32-4.28-1.79-7.6-5.38-10.12-9.24,2.43-.83,4.66-.98,6.49-2.58l-5.68-3.92c-1.77-3.25,2.01-6.85,5.31-7.63,4.56-1.07,8.11-2.8,9.61-7.61l12.3.81c1.04-3.16,2.07-7.26,5.5-8.56s7.64-2,11.59-2.17c5.13-.22,9.23,8.4,17.21,4.4,6.93-3.47,8.44,3.18,12.29,2.88,1.52-.12,2.43-1.38,4.04-2.37,1.41-.86,4.93,1.21,5.14,2.92.65,5.21-7.45,9.14-15.78,8.22-1.27-.14-3.32,1.58-2.34,2.41,6.24,5.24,12.61-.22,19.05-1.03l-.21,5.8c2.47-1.75,4.02-3.75,6.71-4.81,4.97-1.96,8.67,3.61,11.43,9.74-3.03.17-5.21-.39-6.85,1.92l9.26,2.94c2.88.91,7.69-3.09,10.8-.56,1.19.97,1.9,2.83,1.19,4.65-4.18,10.74-15.51,16.48-26.73,14.07l-13.27-3.93c-3.32-.98-6.89-.18-8.3,2.77,1.49-.33,3.06-1.15,3.84-.55l5.91,4.49c-6.03,2.02-11.91,4.56-18.46,4.47-6.28-.09-12.11-4.36-17.99-6.21l-25.32,3.73c-11.16,3.05-20.54,9.85-27.34,19.02-2.71,9.55-5.83,18.27-10.32,26.93l-16.45,26.75c4.49-2.62,8.53-3.93,13.03-5.26,8.2-2.43,14.61-7.01,21.58-12.59-.11,6.01-4.59,8.91-7.39,13.53,6.09,1.11,11.55.56,18.02-1.7-6.92,10.79-20.87,4.48-27.01,6.16-12.68,3.47-23.98,11.94-30.78,23.2-3.8,6.29-4.93,13.34-6.08,20.42-2.49,15.31-2.79,34.71,9.89,43.75l56.37,3.56,55.64,7.2-177.38.44-.41-11.04,16.72-1.23c3.06-.22,4.78-5.76,5.25-8.62l2.97-17.95c1.94-21.08,9.36-40.32,21.64-57.52,4.29-6,6.14-12.57,3.83-20.05-1.73-5.62-6.41-10.94-12.47-13.31Z"/>
    <path class="cls-10" d="M780.25,678.59c1.97-4.9,3.43-9.36,4.2-14.54l3.79-25.49c2.92-13.78,8.39-26.4,15.96-38.24l21.99-30.81,8.56-12.9c8.52-12.91,12.93-27.28,15.45-42.27-.05,17.45-6.42,33.36-15.45,47.98l-20.04,28.51c-7.2,10.31-13.78,20.54-18.41,32.31-5.21,13.27-7.15,26.96-8.08,41.17-.45,5.75-2.14,11.33-7.98,14.29Z"/>
    <path class="cls-12" d="M829.03,473.63c3.44-.13,7.3.33,10.46,2.44,7.19,4.79,7,22,6.21,32.32-6.75-6.4-14.68-9.17-22.96-10.37-4.46-.78-2.88-3.33,1.04-2.73.16-3.31.37-3.83,3.86-4.4,2.81-.56,5.87-1.16,7.54-4.48l-11.24-6.3.78-6.32,4.31-.16Z"/>
    <path class="cls-25" d="M867.54,452.72c-4.48,1.94-7.88,4.49-11.46,7.55l7.41-20.27c4.73-3.73,9.49-6.59,15.6-7.07-3.44,4.01-7.39,6.2-11.22,9.1l6.44,5.24c-2.14,2.25-4.21,3.79-6.78,5.46Z"/>
    <path class="cls-34" d="M907.67,509.85l-15.61,2.17c4.08-3.93,6.98-7.6,7.69-13.3.21-1.65.5-3.71,2.01-4.75,2.37,4.36,5.63,8.28,10.22,9.32l7.4.06c-3.5,2.64-7.21,5.21-11.71,6.5Z"/>
    <path class="cls-25" d="M901.2,451.07c-9.87,6-13.12,11-23.62,3.51l5.12-6.96c2.6-3.54,6.7-.76,9.3,1.56,2.4,2.15,6.01.99,9.2,1.89Z"/>
    <path class="cls-25" d="M824.58,467.15c-3.14-1.46-5-8.38-5.67-11.81l.76-1.81,3.5-1.82,17.51,17.06-9.17-1.14-6.93-.47Z"/>
    <path class="cls-7" d="M841.59,459.44c-4.79-3.62-9.28-7.29-13.63-12.2l12.34-4.61,1.29,16.81Z"/>
    <path class="cls-14" d="M857.24,443.76l-6.71,11.66c-1.39-6.68-1.8-12.73.83-19.04l4.24,2.82c.83.55,1.69.96,1.94,1.51.31.66.28,2.03-.31,3.04Z"/>
    <path class="cls-18" d="M889.85,407.35c-1.47.02-3.31,2.87-5.41,1.15,4.3-6.2,8.46-9.56,15.94-7.56-1.71,4.72-5.28,6.35-10.54,6.41Z"/>
    <path class="cls-20" d="M866.73,466.71c-3.77,2.92-6.52,6.47-9.84,10.59.56-4.9,3.79-10.16,9.84-10.59Z"/>
    <path class="cls-16" d="M819.67,453.52c2.41,5.07,2.68,10.18,4.91,13.63-6.61-1.13-11.61-5.48-15.48-11.21l10.57-2.42Z"/>
    <path class="cls-11" d="M814.08,467.85c-7.3-.3-14.49-.84-19.93-6.11,5.02-.3,8.97.91,13.31-.77,1.87,3.03,4.11,4.6,6.62,6.88Z"/>
    <path class="cls-4" d="M827.64,490.89c-.84.4-2.06.66-2.11,1.35l-.27,3.75c-.08,1.12-2.98.66-4.11.52-.45,1.45,1.13.99,1.04.46-.05-.29.72,1.17.55,1.06-.81-.12-2.37.36-3.28-.62-.86-.92-.9-4.32.21-4.96,2.55-1.48,5.5-1.05,7.97-1.55Z"/>
    <path class="cls-13" d="M811.76,503.12c-4.55,3.64-9.91,6.72-16.25,7.28,5.03-3.55,10.06-5.83,16.25-7.28Z"/>
    <path class="cls-15" d="M788.29,401.66c-11.56,6.82-23.53-1.23-26.81,5.32-1.11,2.21,1.23,4.98,2.83,6.88-2.72,1.99-8.58.62-9.56,3.98-.61,2.08,1.8,4.2,1.11,5.28-.49.77-4.44.32-6.77,2.98,2.7,4.14,14.47,6.82,20.63,7.11,7.39.34,12.29-6.61,15.63-5.82,2.99.71,6.08,1.67,8.24,4.06-3.05.14-6.52-.8-8.2,1.65-.02,1.26,1.06,3.46.21,4.7-4.65,6.74-12.65-1.84-14.72-1.23-1.41.42-1.42,4.43-4.36,4.74-4.13.44-8.17,2.82-11.74,4.64-1.74-.09-5.58-2.39-7-.44-2.14,3.35.41,8.16,2.29,11.99l-9.13,2.42c-1.44.38-2.68,1.62-2.88,2.76-.23,1.3.88,2.2,1.76,3.05,3.12,3,7.07,3.39,11.03,4.75,10.93,3.74,13.53,9.5,28.56-3.52l10.28-1.78c10.32,7.16,25.04,8.46,37.88,7.83.74-.04,1.21.23,1.45.61,0,1.32-1,1.83-3.01,1.54.14,2.7-.55,4.35-2.08,4.94l-7.69-4.46-8.24,6.39c-2.03,1.57-4.43,2.16-6.81.86l-8.74-4.76c-4.28-2.33-9.45-2.57-13.83-.54-5.1,2.36-1.93,8.79-6.15,8.75-6.07-.05-9.56,3.67-17.56-.26-4.04,6.8,7.25,8.5,13.5,15.35-3.18.13-5.63-1.17-8.21-2.56-7.67-4.15-17.08-3.72-19.93,3.73-1.26,3.29-.32,5.81,1.14,8.87-6.63-.94-13.91-1.38-14.28,1.97-.19,1.7,3.26,4.25,2.6,6.88-.22.88-1.28,1.86-2.38,2.44l-6.2,3.25c4.09,4.82,6.68,6.69,11.93,4.02,3.94-2,7.14-1.16,11.09-.27,4.61,1.04,9.61-11.9,17.23-4.28l-9.12,5.68c8.29,9.92,17.95-4.76,28.94-1.9,1.23.32,2.53-.34,2.8-1.06,1.21-3.28-2.36-4.67-2.98-7.63l13.15,3.56c4.71,1.28,9.31-1.86,9.99-6.71l.71-5.07c5.32-3.67,11.29-6.56,17.66-6.67.6.54,1.12,1.18,1.25,1.99.52,3.11-3.32,13.16-4.74,16.52-1.71,4.04-8.3,17.5-11.1,19.79-.64.52-1.44.7-2.25.73-.38-2.24-1.47-3.19-2.56-3.72-1.38-.67-4.88-.92-4.77.34l1.3,15.34c-8.8-4.25-18.01-3.94-26.71-.49-4.87,1.93-9.62-.35-14.93-.4,4.56,2.86,10.34,5.54,15.71,4.11,6.92-1.84,13.37-1.81,19.7.66-1.87-.03-2.31,1.64-3.54,2.69-10.9,9.34-23.03,16.9-36.78,21.6-43.02,14.72-89.41,1.71-118.15-33.51-26.61-32.61-31.74-77.52-13.95-115.66,5.71-12.23,13.93-22.42,23.1-32.06l.82-.58c.98.82,1.4.66,1.24-.46,22.31-21.51,55.12-30.69,85.93-26.95,18.94,2.3,36.01,9.48,50.99,21.07,2.01,1.55,4.03,2.79,5.15,4.92Z"/>
    <path class="cls-3" d="M714.06,405.13c-1.48-.24-2.19-1.63-3.18-2.52-4.33-1.67-8.13-.28-13.06.25l19.98-8.34c-2.71,3.55-3.84,5.95-3.75,10.6Z"/>
    <path class="cls-1" d="M686.34,409.99c-7.77-.71-9.39,2.08-9.8,2.12-.5.05-1.21-.61-1.04-.93l.82-1.49c1.41-2.57-.3-5.19-.08-8.34,1.3,1.84,1.4,4.42,3.39,5.38l6.71,3.26Z"/>
    <text class="cls-6" transform="translate(95.24 687.61)"><tspan class="cls-33" x="0" y="0">L</tspan><tspan x="70.58" y="0">a </tspan><tspan class="cls-22" x="170.63" y="0">P</tspan><tspan x="246.97" y="0">eche</tspan><tspan class="cls-28" x="533.83" y="0">r</tspan><tspan x="584.4" y="0">a</tspan></text>
    <text class="cls-5" transform="translate(253.21 732.65)"><tspan class="cls-24" x="0" y="0">C</tspan><tspan x="20.34" y="0">e</tspan><tspan class="cls-26" x="38.98" y="0">n</tspan><tspan x="59.46" y="0">t</tspan><tspan class="cls-30" x="72.42" y="0">r</tspan><tspan x="85.56" y="0">o de Rec</tspan><tspan class="cls-31" x="215.4" y="0">r</tspan><tspan class="cls-9" x="228.53" y="0">eación y </tspan><tspan class="cls-29" x="365.22" y="0">E</tspan><tspan class="cls-23" x="383.65" y="0">v</tspan><tspan class="cls-9" x="401.84" y="0">e</tspan><tspan class="cls-26" x="420.48" y="0">n</tspan><tspan class="cls-27" x="440.96" y="0">t</tspan><tspan x="453.75" y="0">os</tspan></text>
  </g>
</svg>